# xmcd
#
# Track frame offsets: 
#        150
#        17700
#        36151
#        50732
#        70551
#        89601
#        118880
#        140357
#        158986
#        180586
#        190955
#        207157
#        228611
#        244210
#
# Disc length: 3509 seconds
#
# Revision: 0
# Processed by: cddbd v1.5.2PL0 Copyright (c) Steve Scherf et al.
# Submitted via: ExactAudioCopyFreeDBPlugin 1.0
#
DISCID=c90db30e
DTITLE=Thomas Stelzer - It´s All Over Now, Baby Blue
DYEAR=2016
DGENRE=Blues
TTITLE0=Davenport Stomp
TTITLE1=It´s All Over Now, Baby Blue
TTITLE2=School Girl
TTITLE3=The Tie That Binds
TTITLE4=Peanut Vendor Boo
TTITLE5=Sante
TTITLE6=Hey Joe
TTITLE7=Tonight
TTITLE8=Spoonful
TTITLE9=Java
TTITLE10=When The Trouble Cleaned My Way
TTITLE11=Give It Up
TTITLE12=Please Don´t Disturb
TTITLE13=Sporting Live Blues
EXTD=
EXTT0=
EXTT1=
EXTT2=
EXTT3=
EXTT4=
EXTT5=
EXTT6=
EXTT7=
EXTT8=
EXTT9=
EXTT10=
EXTT11=
EXTT12=
EXTT13=
PLAYORDER=
